# xmcd CD database file
# Copyright (C) 1993-1998 Ti Kan
#
# Track frame offsets:
#  150
#  17680
#  31485
#  47082
#  60485
#  74847
#  94457
#  111925
#  129352
#  144810
#
# Disc length: 2123 seconds
#
# Revision: 1
# Processed by: cddbd v1.4b41PL1 Copyright (c) Steve Scherf et al.
# Submitted via: CDWizzard Release:4.35
#
DISCID=8c08490a
DTITLE=Shane Stockton - Stories I Could Tell
DYEAR=1900
DGENRE=
TTITLE0=Somewhere In The Ashes
TTITLE1=What If I'm Right
TTITLE2=I Didn't Know
TTITLE3=Don't Let The Fool Fool You
TTITLE4=Gonna Have To Fall
TTITLE5=Train, Train
TTITLE6=Geronimo
TTITLE7=Stories I Could Tell
TTITLE8=My Life's An Open Book
TTITLE9=Billy Saw The Light
EXTD=
EXTT0=
EXTT1=
EXTT2=
EXTT3=
EXTT4=
EXTT5=
EXTT6=
EXTT7=
EXTT8=
EXTT9=
PLAYORDER=
